<?xml version="1.0" encoding="UTF-8" standalone="no"?>
<svg
   xmlns:dc="http://purl.org/dc/elements/1.1/"
   xmlns:cc="http://creativecommons.org/ns#"
   xmlns:rdf="http://www.w3.org/1999/02/22-rdf-syntax-ns#"
   xmlns:svg="http://www.w3.org/2000/svg"
   xmlns="http://www.w3.org/2000/svg"
   xmlns:sodipodi="http://sodipodi.sourceforge.net/DTD/sodipodi-0.dtd"
   xmlns:inkscape="http://www.inkscape.org/namespaces/inkscape"
   id="b19166cc-0fc2-4ad2-ab70-e750108f5605"
   data-name="Layer 1"
   width="856.97376"
   height="510.42687"
   viewBox="0 0 856.97376 510.42687"
   version="1.1"
   sodipodi:docname="abc15.svg"
   inkscape:version="1.0.1 (3bc2e813f5, 2020-09-07)">
  <metadata
     id="metadata75">
    <rdf:RDF>
      <cc:Work
         rdf:about="">
        <dc:format>image/svg+xml</dc:format>
        <dc:type
           rdf:resource="http://purl.org/dc/dcmitype/StillImage" />
        <dc:title>junior_soccer</dc:title>
      </cc:Work>
    </rdf:RDF>
  </metadata>
  <defs
     id="defs73" />
  <sodipodi:namedview
     pagecolor="#ffffff"
     bordercolor="#666666"
     borderopacity="1"
     objecttolerance="10"
     gridtolerance="10"
     guidetolerance="10"
     inkscape:pageopacity="0"
     inkscape:pageshadow="2"
     inkscape:window-width="1600"
     inkscape:window-height="872"
     id="namedview71"
     showgrid="false"
     inkscape:zoom="0.655"
     inkscape:cx="431.16214"
     inkscape:cy="316.52247"
     inkscape:window-x="0"
     inkscape:window-y="0"
     inkscape:window-maximized="1"
     inkscape:current-layer="b19166cc-0fc2-4ad2-ab70-e750108f5605" />
  <title
     id="title2">junior_soccer</title>
  <path
     d="m 405.45381,505.06525 c 3.05288,-3.93878 7.07903,3.896 11.10632,1 h -22.31687 c 4.54327,2.57672 8.0888,-5.20941 11.21055,-1 z"
     fill="none"
     id="path4"
     style="stroke-width:0.99995" />
  <path
     d="m 478.82697,506.06525 h -3.84705 c 0.8265,0.59319 1.65546,1.18363 2.44506,1.82471 0.45059,-0.62218 0.93165,-1.21897 1.40199,-1.82471 z"
     fill="none"
     id="path6"
     style="stroke-width:0.99995" />
  <path
     d="m 376.38233,501.33825 a 36.829365,-37.62407 0 0 0 -17.90696,4.727 h 35.76789 a 36.668483,-37.4597 0 0 0 -17.86093,-4.727 z"
     fill="#e6e6e6"
     id="path8"
     style="stroke-width:0.99995" />
  <path
     d="m 445.78975,496.61124 a 50.60113,-51.693 0 0 0 -29.22959,9.454 h 58.41976 a 50.589389,-51.681 0 0 0 -29.19017,-9.454 z"
     fill="#e6e6e6"
     id="path10"
     style="stroke-width:0.99995" />
  <path
     d="m 277.55747,180.23878 c 0,0 -37.72068,-12.00334 -31.93026,7.74526 5.79057,19.7486 37.56255,9.77313 37.56255,9.77313 z"
     fill="#ffb8b8"
     id="path16"
     style="stroke-width:0.99995" />
  <path
     d="m 421.7485,106.11384 c 0,0 -19.33132,-26.986675 -38.11269,1.02891 -18.8183,28.07069 -36.31424,51.11509 -36.31424,51.11509 l -46.73723,15.5676 -27.03885,2.45078 7.44853,24.55808 78.61709,-11.65109 c 0,0 87.52557,-53.11402 62.13739,-83.06937 z"
     fill="#2f2e41"
     id="path18"
     style="stroke-width:0.99995" />
  <path
     d="m 335.46403,255.56525 c 0,0 -29.36632,21 -27.40858,40 1.95774,19 14.68316,71 14.68316,71 l 26.42965,-4 c 0,0 2.93667,-40 -6.85209,-55 l 46.98612,-27 z"
     fill="#ffb8b8"
     id="path20"
     style="stroke-width:0.99995" />
  <path
     d="m 400.55942,305.06525 c 0,0 -1.9578,37 2.9366,52 4.89437,15 9.78877,71 9.78877,71 h 27.40858 c 0,0 12.72543,-49 -2.93663,-71 0,0 -4.89441,-29 8.81,-43 z"
     fill="#ffb8b8"
     id="path22"
     style="stroke-width:0.99995" />
  <path
     d="m 394.19668,202.56525 c 0,0 -63.62705,41 -63.62705,54 l 50.90162,43 17.61982,-20 -1.95768,30 54.81701,11 c 0,0 19.57758,-76 18.5988,-79 -0.97894,-3 -3.91562,-47 -3.91562,-47 z"
     fill="#2f2e41"
     id="path24"
     style="stroke-width:0.99995" />
  <path
     d="m 349.16825,357.56525 -28.3874,6 5.04376,21.18241 a 74.043192,-75.64089 0 0 1 0.82952,31.81757 v 0 c 0,0 29.36632,8 29.36632,4 0,-4 -6.8522,-20 -4.89439,-31 1.95783,-11 -1.95781,-31.99999 -1.95781,-31.99998 z"
     fill="#2175f5"
     id="path26"
     style="stroke-width:0.99995" />
  <path
     d="m 363.85145,432.56525 c -0.97875,-4 -9.11183,-22.13574 -9.4503,-19.06787 -0.3385,3.06787 -16.00048,8.06787 -21.87375,2.06787 0,0 -7.83106,-7 -10.76765,0 -2.93669,7 -8.8099,19 -8.8099,19 0,0 -26.42978,13 -22.51423,20 0.79192,1.41578 2.98599,2.01288 5.98152,2.06543 a 1.5989783,-1.63348 0 0 0 -0.10825,0.5802 v 0.70868 a 1.610949,-1.64571 0 0 0 1.61093,1.64569 h 0.69366 a 1.610949,-1.64571 0 0 0 1.61091,-1.64569 v -0.70868 a 1.5935548,-1.62794 0 0 0 -0.17592,-0.73346 c 0.8006,-0.0716 1.63108,-0.16632 2.48503,-0.281 a 1.5957865,-1.63022 0 0 0 -0.35128,1.01446 v 0.70868 a 1.610949,-1.64571 0 0 0 1.61086,1.64569 h 0.69366 a 1.610949,-1.64571 0 0 0 1.61097,-1.64569 v -0.70868 a 1.6038327,-1.63844 0 0 0 -0.83314,-1.43267 c 2.25303,-0.38428 4.60462,-0.87275 6.94283,-1.41456 a 1.5961484,-1.63059 0 0 0 -0.23643,0.84723 v 0.70868 a 1.610949,-1.64571 0 0 0 1.61093,1.64569 h 0.69359 a 1.610949,-1.64571 0 0 0 1.61099,-1.64569 v -0.70868 a 1.6091679,-1.64389 0 0 0 -0.95771,-1.50177 c 1.75373,-0.4367 3.47264,-0.892 5.10862,-1.34356 a 1.5960606,-1.6305 0 0 0 -0.23543,0.84533 v 0.70868 a 1.610949,-1.64571 0 0 0 1.61093,1.64569 h 0.69377 a 1.610949,-1.64571 0 0 0 1.61079,-1.64569 v -0.70868 a 1.60536,-1.64 0 0 0 -1.13275,-1.56347 c 5.74859,-1.6543 9.9427,-3.08216 9.9427,-3.08216 0,0 4.87044,-1.81048 10.76766,-4.25628 v 0.61059 a 1.610949,-1.64571 0 0 0 1.61082,1.64569 h 0.69373 a 1.610949,-1.64571 0 0 0 1.61095,-1.64569 v -0.70868 a 1.6015226,-1.63608 0 0 0 -0.62303,-1.291 c 1.18397,-0.50842 2.37824,-1.03119 3.55963,-1.56287 v 0.56256 a 1.610949,-1.64571 0 0 0 1.61095,1.64569 h 0.69361 a 1.610949,-1.64571 0 0 0 1.61094,-1.64569 v -0.70868 a 1.6069072,-1.64158 0 0 0 -0.68949,-1.3471 c 1.27745,-0.60865 2.50756,-1.21686 3.64189,-1.81256 -0.005,0.0533 -0.0161,0.105 -0.0161,0.15966 v 0.70868 a 1.610949,-1.64571 0 0 0 1.61092,1.64569 h 0.69365 a 1.610949,-1.64571 0 0 0 1.61093,-1.64569 v -0.70868 a 1.6112328,-1.646 0 0 0 -1.28916,-1.61248 c 2.73708,-1.62373 4.46294,-3.0641 4.22574,-4.03316 z"
     fill="#2f2e41"
     id="path28"
     style="stroke-width:0.99995" />
  <path
     d="m 442.65113,423.56525 -31.01085,-2 c 0,0 1.87945,33 -1.87951,44 -3.75878,11 -1.87937,15 -1.87937,15 l 27.25196,2 z"
     fill="#2175f5"
     id="path30"
     style="stroke-width:0.99995" />
  <path
     d="m 443.03268,496.49977 c -0.14092,-4.12059 -4.39359,-23.5901 -5.35077,-20.66175 -0.95717,2.92835 -17.29557,4.48236 -21.81512,-2.6368 0,0 -6.23018,-8.5142 -10.5309,-2.29357 -4.30092,6.22063 -12.49429,16.70585 -12.49429,16.70585 0,0 -28.50215,7.08461 -26.10136,14.76479 0.48546,1.55334 2.50952,2.60468 5.42856,3.29413 a 1.5991729,-1.63368 0 0 0 -0.22443,0.54438 l -0.14461,0.69311 a 1.6109393,-1.6457 0 0 0 1.23963,1.95265 l 0.67834,0.14775 a 1.610929,-1.64569 0 0 0 1.91143,-1.26638 l 0.14463,-0.6931 a 1.5936134,-1.628 0 0 0 -0.0224,-0.75482 c 0.79754,0.10045 1.6291,0.18477 2.48774,0.25449 a 1.595835,-1.63027 0 0 0 -0.55074,0.91734 l -0.14461,0.6931 a 1.610949,-1.64571 0 0 0 1.23955,1.95266 l 0.67843,0.14775 a 1.6109587,-1.64572 0 0 0 1.91142,-1.26638 l 0.14455,-0.69311 a 1.6038226,-1.63843 0 0 0 -0.52236,-1.57865 c 2.28196,0.10408 4.68168,0.12724 7.07897,0.0954 a 1.5961484,-1.63059 0 0 0 -0.40422,0.77825 l -0.14458,0.6931 a 1.610949,-1.64571 0 0 0 1.23971,1.95266 l 0.67829,0.14775 a 1.610949,-1.64571 0 0 0 1.91143,-1.26639 l 0.1447,-0.6931 a 1.6091679,-1.64389 0 0 0 -0.63024,-1.67275 c 1.80426,-0.0536 3.57835,-0.13268 5.27055,-0.22588 a 1.5961284,-1.63057 0 0 0 -0.40271,0.77661 l -0.14468,0.69311 a 1.610949,-1.64571 0 0 0 1.23973,1.95265 l 0.67823,0.14775 a 1.610929,-1.64569 0 0 0 1.91144,-1.26638 l 0.14476,-0.6931 a 1.6054381,-1.64008 0 0 0 -0.78887,-1.77041 c 5.95993,-0.39344 10.35316,-0.89656 10.35316,-0.89656 0,0 5.13296,-0.73327 11.39977,-1.86918 l -0.12463,0.59718 a 1.6109587,-1.64572 0 0 0 1.23962,1.95266 l 0.67839,0.14775 a 1.610949,-1.64571 0 0 0 1.91137,-1.26639 l 0.14467,-0.6931 a 1.6015524,-1.63611 0 0 0 -0.3459,-1.39535 c 1.2619,-0.245 2.5365,-0.50195 3.80042,-0.77029 l -0.11478,0.5502 a 1.610929,-1.64569 0 0 0 1.23973,1.95265 l 0.67824,0.14776 a 1.6109587,-1.64572 0 0 0 1.91147,-1.26639 l 0.1447,-0.6931 a 1.6069163,-1.64159 0 0 0 -0.39944,-1.46437 c 1.37355,-0.32317 2.70073,-0.656 3.93179,-0.997 -0.0161,0.0511 -0.0369,0.0993 -0.0481,0.1528 l -0.14462,0.69311 a 1.610949,-1.64571 0 0 0 1.2396,1.95265 l 0.67844,0.14775 a 1.610949,-1.64571 0 0 0 1.91139,-1.26638 l 0.14467,-0.6931 a 1.6112918,-1.64606 0 0 0 -0.93168,-1.85164 c 3.00846,-1.00501 4.99044,-2.0461 4.95626,-3.04437 z"
     fill="#2f2e41"
     id="path32"
     style="stroke-width:0.99995" />
  <ellipse
     cx="394.19684"
     cy="43.56525"
     fill="#ffb8b8"
     id="circle34"
     style="stroke-width:0.99995"
     rx="28.387466"
     ry="29" />
  <path
     d="m 419.64751,40.565255 c 0,0 15.66202,20 23.49305,19 l -34.26072,27 c 0,0 -3.91547,-17 -8.80986,-19 -4.89439,-2 19.57753,-27 19.57753,-27 z"
     fill="#ffb8b8"
     id="path36"
     style="stroke-width:0.99995" />
  <path
     d="m 480.8274,189.06524 c 0,0 -0.002,-110.346305 -18.12214,-119.851795 -18.10923,-9.5 -30.08828,-14.92211 -30.08828,-14.92211 v 0 a 25.409363,-25.95764 0 0 1 -9.76936,18.56709 c -6.00449,4.7357 -11.98663,8.66252 -15.32848,8.67509 l -0.10758,-0.46827 -0.40759,-1.18884 -9.87058,15.68884 c 0,0 -8.80998,2 -11.7466,7.999995 -1.58871,3.246 5.90316,35.9231 1.46833,65.5 -3.76258,25.09362 -19.61773,47.74599 -20.06703,50.49999 -0.75953,4.65546 18.51091,-7.54187 27.18871,-13.24408 0.12849,0.14637 0.21988,0.24408 0.21988,0.24408 0,0 -4.89439,2 4.89439,-1 5.54637,-1.69983 13.29036,-1.79406 18.96291,-1.55682 -0.007,1.73737 0.0333,3.11774 0.1252,4.05682 0.97891,10 49.92278,24 56.77491,21 6.85217,-3 5.87331,-39.99999 5.87331,-39.99999 z"
     fill="#2f2e41"
     id="path38"
     style="stroke-width:0.99995" />
  <path
     d="m 446.56674,227.06525 c 0,0 -29.36638,27 -9.7888,32 19.57758,5 27.40853,-28 27.40853,-28 z"
     fill="#ffb8b8"
     id="path40"
     style="stroke-width:0.99995" />
  <path
     d="m 412.30596,297.06525 c 0,0 13.70429,-13 21.5353,-6 7.83108,7 12.72548,12 12.72548,12 0,0 -22.51426,-14 -34.26078,-6 z"
     fill="#2175f5"
     id="path42"
     style="stroke-width:0.99995" />
  <path
     d="m 415.86554,452.61366 c 0,0 7.72418,-7.32724 12.13803,-3.3818 4.41378,3.94544 7.17249,6.76361 7.17249,6.76361 0,0 -12.6898,-7.89088 -19.31052,-3.38181 z"
     fill="#2f2e41"
     id="path44"
     style="stroke-width:0.99995" />
  <path
     d="m 329.3295,384.45903 c 0,0 5.30246,-9.30656 10.64925,-6.84419 5.34676,2.46237 8.78884,4.33837 8.78884,4.33837 0,0 -14.38855,-3.77649 -19.43809,2.50582 z"
     fill="#2f2e41"
     id="path46"
     style="stroke-width:0.99995" />
  <path
     d="m 473.43068,82.934095 c -9.70338,-19.92594 -39.22781,-9.0584 -34.43034,12.65073 q 0.10726,0.48545 0.2247,0.98043 a 193.18255,-197.351 0 0 0 24.47197,57.999995 l -10.7677,49 -11.74646,25 24.47194,6 30.3452,-75 c 0,0 -8.37014,-47.4731 -22.56931,-76.631155 z"
     fill="#2f2e41"
     id="path48"
     style="stroke-width:0.99995" />
  <polygon
     points="469,156.065 450,228.065 466,194.065 "
     opacity="0.2"
     id="polygon50"
     transform="matrix(0.97887784,0,0,1,0.19835252,4.8601001e-6)"
     style="stroke-width:1.0107" />
  <path
     d="m 311.48152,391.06525 a 44.936179,-45.90581 0 0 1 -0.61676,7.56 v 0.01 a 44.060692,-45.01143 0 0 1 -60.92531,33.73 h -0.01 a 42.975672,-43.903 0 0 1 -5.25654,-2.77 44.115382,-45.0673 0 0 1 -20.43895,-29.65 44.593762,-45.556 0 0 1 -0.85161,-8.88 c 0,-1.36 0.0588,-2.71 0.17613,-4.04 v -0.01 a 44.047971,-44.99843 0 0 1 87.9131,3.43 v 0.01 c 0.01,0.20992 0.01,0.39992 0.01,0.60994 z"
     fill="#2175f5"
     id="path54"
     style="stroke-width:0.99995" />
  <path
     d="M 278.27518,376.03498 H 258.5466 l -9.86475,-17.45019 6.69109,-11.84766 0.39094,-0.10742 a 45.180115,-46.155 0 0 1 25.74719,0.73535 l 0.35463,0.12012 6.27427,11.09961 z m -18.59868,-2 h 17.46874 l 8.734,-15.45019 -5.33414,-9.4375 a 43.417871,-44.35474 0 0 0 -23.88313,-0.69141 l -5.71935,10.12891 z"
     fill="#ffffff"
     id="path56"
     style="stroke-width:0.99995" />
  <path
     d="m 277.29633,412.03596 h -19.72859 l -9.8648,-17.4541 9.8648,-17.45411 h 19.72862 l 9.86473,17.45411 z m -18.59876,-2 h 17.46885 l 8.73389,-15.4541 -8.73389,-15.45411 H 258.6976 l -8.73389,15.45411 z"
     fill="#ffffff"
     id="path58"
     style="stroke-width:0.99995" />
  <path
     d="m 267.432,437.06525 a 44.619521,-45.58231 0 0 1 -17.88265,-3.7832 l -1.00617,-0.44629 10.00292,-17.71094 h 19.72908 l 9.58133,16.95508 -0.9516,0.4668 a 44.609648,-45.57223 0 0 1 -19.47291,4.51855 z m -16.0899,-5.18359 a 43.117972,-44.04837 0 0 0 33.75707,-0.68164 l -7.95395,-14.0752 h -17.46825 z"
     fill="#ffffff"
     id="path60"
     style="stroke-width:0.99995" />
  <path
     d="m 310.57814,394.03498 h -19.72855 l -9.86473,-17.45019 9.86424,-17.46 h 8.9834 l 0.2897,0.31153 a 44.812829,-45.7798 0 0 1 12.32857,30.99612 v 0.29 z m -18.59865,-2 h 17.46881 l 1.04101,-1.84082 a 42.85384,-43.77854 0 0 0 -11.50087,-29.06934 h -7.00842 l -8.73441,15.46 z"
     fill="#ffffff"
     id="path62"
     style="stroke-width:0.99995" />
  <path
     d="m 290.57752,430.54669 -9.59269,-16.96191 9.86423,-17.46 h 19.72814 l 1.2666,2.23047 -0.0142,0.44727 A 45.122185,-46.09583 0 0 1 291.43807,429.991 Z m -7.33197,-16.96191 8.00213,14.14843 a 43.1589,-44.09018 0 0 0 18.59345,-28.91894 l -0.39193,-0.68946 h -17.46924 z"
     fill="#ffffff"
     id="path64"
     style="stroke-width:0.99995" />
  <path
     d="m 245.02152,430.97833 -0.85458,-0.52734 a 45.140563,-46.1146 0 0 1 -20.89243,-30.30955 l -0.0725,-0.37012 2.06292,-3.64649 h 19.72908 l 9.86426,17.46 z m -19.75343,-30.8623 a 43.180194,-44.11193 0 0 0 19.06276,28.08593 l 8.26645,-14.61718 -8.73437,-15.46 h -17.46834 z"
     fill="#ffffff"
     id="path66"
     style="stroke-width:0.99995" />
  <path
     d="M 244.99334,392.03498 H 225.26523 L 222.58,387.29377 v -0.26856 a 44.892633,-45.86133 0 0 1 14.18273,-29.63277 l 0.28205,-0.26758 h 7.94904 l 9.86426,17.46 z m -18.59914,-2 h 17.46924 l 8.73391,-15.45019 -8.73438,-15.46 h -6.04583 a 42.892765,-43.8183 0 0 0 -13.25542,27.67383 z"
     fill="#ffffff"
     id="path68"
     style="stroke-width:0.99995" />
  <path
     d="m 804.75802,432.88588 c -2.66989,-48.41162 -41.56614,-87.88292 -89.93831,-91.19138 a 96.92379,96.92379 0 0 0 -100.18644,70.76088 c -1.174,-0.0421 -2.34691,-0.0893 -3.53112,-0.0893 a 96.926,96.926 0 0 0 -92.97649,69.6 68.484,68.484 0 0 0 -81.26155,20.21311 h 302.27283 c 37.13609,0 67.204,-30.759 65.68966,-67.86416 q -0.0291,-0.7135 -0.0686,-1.42916 z"
     fill="#e6e6e6"
     id="path12" />
  <path
     d="m 413.00118,0.759635 c 0,0 -16.03027,-16.87649 -32.16549,-6.24832 -16.13522,10.62817 -23.78951,20.95242 -22.20751,28.14099 1.582,7.18857 6.26419,17.18755 6.26419,17.18755 0,0 -2.90988,-14.89267 10.4505,-15.99474 13.36038,-1.10207 31.81891,-9.94376 31.81891,-9.94376 l 12.48573,26.6639 c 0,0 1.76517,-6.1789 6.65887,-4.40663 4.8937,1.77227 1.10041,-33.42227 -13.3052,-35.39899 z"
     fill="#2f2e41"
     id="path52" />
</svg>
